<svg width="45" height="45" viewBox="0 0 45 45" fill="none" xmlns="http://www.w3.org/2000/svg">
<g id="instagram">
<rect id="Background" width="45" height="45" rx="22.5" fill="url(#paint0_linear_148_2786)" style=""/>
<g id="Group">
<path id="Shade" opacity="0.1" d="M39 7.82475C35.7774 13.7399 31.2199 19.8412 25.5251 25.5353C19.8304 31.2295 13.7284 35.7778 7.82133 39C7.45098 38.6782 7.0913 38.3428 6.74229 37.9938C1.00045 32.4442 -1.3013 24.2295 0.721183 16.5049C2.74366 8.7803 8.77586 2.74708 16.5007 0.722667C24.2256 -1.30175 32.4419 0.997448 37.9937 6.73711C38.3427 7.08609 38.6781 7.44864 39 7.82475Z" fill="white" style="fill:white;fill-opacity:1;"/>
<g id="Icon">
<path id="Shape" fill-rule="evenodd" clip-rule="evenodd" d="M17.1283 10.7329H27.5988C31.1326 10.7329 33.9974 13.5973 33.9974 17.1308V27.6001C33.9974 31.1336 31.1326 33.998 27.5988 33.998H17.1283C13.5945 33.998 10.7297 31.1336 10.7297 27.6001V17.1308C10.7297 13.5973 13.5945 10.7329 17.1283 10.7329ZM26.6797 31.9623C29.5968 31.9623 31.9615 29.5979 31.9615 26.6811V18.0498C31.9615 15.1331 29.5968 12.7686 26.6797 12.7686H18.0474C15.1304 12.7686 12.7657 15.1331 12.7657 18.0498V26.6811C12.7657 29.5979 15.1304 31.9623 18.0474 31.9623H26.6797Z" fill="white" style="fill:white;fill-opacity:1;"/>
<path id="Shape_2" fill-rule="evenodd" clip-rule="evenodd" d="M26.5518 18.1108L26.6071 18.166C28.2592 19.8941 28.734 22.4351 27.8173 24.6431C26.9007 26.8512 24.7657 28.3089 22.3753 28.359C20.7998 28.3635 19.2886 27.7348 18.1813 26.6142C17.0622 25.4833 16.435 23.9563 16.4362 22.3654C16.4246 20.7822 17.0427 19.2593 18.1544 18.1319C19.2661 17.0045 20.7803 16.365 22.3636 16.3542C23.9161 16.3535 25.4056 16.9685 26.5053 18.0642L26.5518 18.1108ZM18.6808 23.9131C19.3087 25.3848 20.7636 26.3312 22.3636 26.3088C23.4024 26.3019 24.3959 25.8824 25.1252 25.1428C25.8545 24.4032 26.26 23.404 26.2522 22.3654C26.2521 20.7654 25.2851 19.3241 23.8046 18.7171C22.3241 18.1101 20.6235 18.4578 19.5 19.5971C18.3766 20.7364 18.0529 22.4415 18.6808 23.9131Z" fill="white" style="fill:white;fill-opacity:1;"/>
<path id="Path" d="M30.0506 16.0781C30.0537 16.455 29.9068 16.8176 29.6421 17.086C29.3775 17.3544 29.017 17.5066 28.64 17.5089C28.2662 17.5087 27.908 17.3589 27.6454 17.093C27.2426 16.6844 27.1222 16.0751 27.3393 15.5441C27.5565 15.013 28.0693 14.6625 28.643 14.6531C28.9714 14.653 29.2895 14.7683 29.5417 14.9788L29.5708 15.0079C29.6177 15.046 29.6605 15.0889 29.6987 15.1358L29.7307 15.1707C29.9389 15.4272 30.0519 15.7478 30.0506 16.0781Z" fill="white" style="fill:white;fill-opacity:1;"/>
</g>
</g>
</g>
<defs>
<linearGradient id="paint0_linear_148_2786" x1="-9.31974" y1="22.5" x2="22.5" y2="54.3197" gradientUnits="userSpaceOnUse">
<stop stop-color="#FAE100" style="stop-color:#FAE100;stop-color:color(display-p3 0.9804 0.8824 0.0000);stop-opacity:1;"/>
<stop offset="0.15" stop-color="#FCB720" style="stop-color:#FCB720;stop-color:color(display-p3 0.9882 0.7176 0.1255);stop-opacity:1;"/>
<stop offset="0.3" stop-color="#FF7950" style="stop-color:#FF7950;stop-color:color(display-p3 1.0000 0.4745 0.3137);stop-opacity:1;"/>
<stop offset="0.5" stop-color="#FF1C74" style="stop-color:#FF1C74;stop-color:color(display-p3 1.0000 0.1098 0.4549);stop-opacity:1;"/>
<stop offset="1" stop-color="#6C1CD1" style="stop-color:#6C1CD1;stop-color:color(display-p3 0.4235 0.1098 0.8196);stop-opacity:1;"/>
</linearGradient>
</defs>
</svg>
