<svg width="45" height="45" viewBox="0 0 45 45" fill="none" xmlns="http://www.w3.org/2000/svg">
<g id="twitter">
<circle id="Background" cx="22.5" cy="22.5" r="22.5" fill="#03A9F4" style="fill:#03A9F4;fill:color(display-p3 0.0118 0.6627 0.9569);fill-opacity:1;"/>
<path id="Icon" d="M37 13.8431C35.909 14.3282 34.7549 14.6505 33.5735 14.8C34.8189 14.0481 35.7499 12.8568 36.1898 11.4523C35.0241 12.1568 33.7486 12.6529 32.4186 12.9192C30.7507 11.1031 28.1617 10.5101 25.8906 11.4239C23.6195 12.3377 22.1282 14.5724 22.1302 17.0588C22.1261 17.5225 22.1725 17.9853 22.2687 18.4386C17.4836 18.1993 13.0251 15.8964 10.0093 12.1063C8.41831 14.8736 9.22032 18.4239 11.839 20.2054C10.8974 20.1796 9.9758 19.9234 9.15199 19.4585V19.5245C9.15745 22.4046 11.1459 24.8862 13.9161 25.4699C13.4075 25.6059 12.8834 25.6725 12.3575 25.6678C11.9789 25.675 11.6006 25.6408 11.2291 25.5659C12.0181 28.0285 14.2453 29.718 16.7887 29.7834C14.6854 31.4572 12.0926 32.3664 9.42304 32.3661C8.94739 32.3703 8.472 32.3422 8 32.2822C10.722 34.0689 13.8948 35.013 17.1334 34.9999C28.0787 34.9999 34.0626 25.7698 34.0626 17.7697C34.0626 17.5027 34.0626 17.2447 34.042 16.9868C35.2073 16.1305 36.2097 15.0652 37 13.8431Z" fill="white" style="fill:white;fill-opacity:1;"/>
</g>
</svg>
