<svg width="28" height="28" viewBox="0 0 28 28" fill="none" xmlns="http://www.w3.org/2000/svg">
<path fill-rule="evenodd" clip-rule="evenodd" d="M5.80668 2.63017C11.4002 -1.37736 19.1024 -0.745781 23.9569 4.11848C28.7687 8.94885 29.3548 16.5228 25.3426 22.0253C21.3303 27.5277 13.8961 29.3454 7.76626 26.3226L0.696178 27.9852C0.47676 28.0374 0.247714 27.9491 0.121332 27.7637C0.0361635 27.643 0.00547815 27.4926 0.036645 27.3486L1.52252 20.1917C-1.60489 14.0901 0.213133 6.63769 5.80668 2.63017ZM9.12126 23.611C13.3359 25.6918 18.4189 24.8721 21.7525 21.5742C26.0111 17.3486 26.0363 10.5059 21.8089 6.24952C21.7888 6.23215 21.77 6.21344 21.7525 6.19351C17.4704 1.94648 10.5291 1.94648 6.24703 6.19351C2.88973 9.5247 2.07547 14.6215 4.22994 18.8194L4.7124 19.764L3.8142 24.0922L3.80137 24.1457L8.13581 23.1273L9.12126 23.611Z" fill="white" style="fill:white;fill-opacity:1;"/>
<path d="M21.3674 18.3992C20.8362 19.2292 19.9971 20.2451 18.9423 20.4971C17.0946 20.9401 14.2589 20.5124 10.7302 17.2484L10.6866 17.2102C7.58398 14.356 6.77817 11.9806 6.97321 10.0965C7.08099 9.02716 7.97919 8.05966 8.73624 7.42824C8.97894 7.22274 9.30534 7.14329 9.61635 7.21404C9.92736 7.28478 10.1863 7.49736 10.3145 7.78724L11.4565 10.3333C11.6077 10.6697 11.5593 11.0615 11.3307 11.3517L10.7533 12.0952C10.4999 12.4092 10.4643 12.8446 10.6635 13.195C10.9869 13.7577 11.7619 14.5852 12.6216 15.3516C13.5865 16.2172 14.6566 17.009 15.3341 17.2789C15.705 17.4292 16.1308 17.3405 16.4094 17.0549L17.0792 16.3852C17.3423 16.1278 17.7246 16.0306 18.08 16.1306L20.7926 16.8945C21.0958 16.9867 21.339 17.2129 21.4514 17.5072C21.5638 17.8014 21.5328 18.1307 21.3674 18.3992Z" fill="white" style="fill:white;fill-opacity:1;"/>
</svg>
